<svg fill="none" xmlns="http://www.w3.org/2000/svg" viewBox="0 0 94 32">
  <path d="M54.2.6c.5-.2 1 .3.7.7L43.1 28c0 .3-.4.4-.7.3l-5-2.5-5.5-2.7 13-13.7-19 11.6-8.6-3.2a.6.6 0 0 1 0-1L54.2.5Z" fill="#BDBDBD"/>
  <path d="M37.4 25.7 31.9 23v9l5.5-6.3Z" fill="#4F4F4F"/>
  <path d="m31.9 23 13-13.7-19 11.6L32 32v-9Z" fill="#828282"/>
  <path fill-rule="evenodd" clip-rule="evenodd" d="M51.2 11.2 54.5 4l1-.6c1.4-.6 3-.9 4.8-.9 2.6 0 4.7.7 6.3 2a7 7 0 0 1 2.8 5.2h-4.8c-.1-1-.6-1.8-1.4-2.5-.9-.6-2-1-3.4-1-1.2 0-2.2.3-3 1-.8.6-1.2 1.5-1.2 2.7 0 .8.2 1.5.7 2 .5.5 1.2 1 2 1.2.7.3 1.7.7 3 1 1.8.5 3.3 1 4.4 1.5a7 7 0 0 1 2.8 2.2c.8 1 1.2 2.3 1.2 4a7 7 0 0 1-1.1 3.8 7.8 7.8 0 0 1-3.2 2.9c-1.4.7-3 1-5 1-1.7 0-3.3-.3-4.7-.9a8 8 0 0 1-3.4-2.6 6.7 6.7 0 0 1-1.2-4h4.6c.1 1.1.6 2 1.4 2.8a5 5 0 0 0 3.4 1c1.5 0 2.7-.3 3.5-1 .9-.7 1.3-1.6 1.3-2.8a3 3 0 0 0-.8-2.2 5 5 0 0 0-2-1.2c-.7-.3-1.8-.7-3.2-1L55 16c-1-.5-2-1.2-2.7-2.2-.6-.7-1-1.6-1-2.7Zm42.1 18V2.8H89V14H76.4V2.8H72v26.4h4.4V17.6H89v11.6h4.3ZM22.7 13.4c-.3-1.6-.8-3-1.6-4.3-1.1-2-2.8-3.6-5-4.7-2-1-4.5-1.6-7.4-1.6H0v26.4h8.7c2.9 0 5.3-.5 7.5-1.6a11.5 11.5 0 0 0 6.2-7.6l-4.2-1.5c-.3 1.9-1.1 3.5-2.3 4.7-1.7 1.6-4 2.5-7.2 2.5H4.4V6.3h4.3c3.1 0 5.5.9 7.2 2.6a9.5 9.5 0 0 1 2.5 6.4l4.3-2Z" fill="#F90"/>
</svg>
