<svg width="24" height="24" viewBox="0 0 24 24" fill="none" xmlns="http://www.w3.org/2000/svg">
<rect width="24" height="24" rx="5.02564" fill="url(#paint0_linear_51_994)" fill-opacity="0.6"/>
<path fill-rule="evenodd" clip-rule="evenodd" d="M7 7H7.61538V16.4707H16.8462V17.102H7V7ZM13.1538 9.20982C13.1538 9.12609 13.1863 9.0458 13.244 8.98659C13.3017 8.92739 13.3799 8.89413 13.4615 8.89413H15.9231C16.0047 8.89413 16.0829 8.92739 16.1406 8.98659C16.1984 9.0458 16.2308 9.12609 16.2308 9.20982V11.7353C16.2308 11.8191 16.1984 11.8993 16.1406 11.9586C16.0829 12.0178 16.0047 12.051 15.9231 12.051C15.8415 12.051 15.7632 12.0178 15.7055 11.9586C15.6478 11.8993 15.6154 11.8191 15.6154 11.7353V10.0937L13.392 12.8825C13.3648 12.9166 13.3309 12.9445 13.2926 12.9643C13.2542 12.9842 13.2122 12.9956 13.1694 12.9978C13.1265 13 13.0836 12.9929 13.0435 12.9771C13.0034 12.9613 12.967 12.937 12.9366 12.9059L11.3446 11.2725L9.09477 14.4465C9.04555 14.5107 8.97399 14.5528 8.89513 14.564C8.81626 14.5752 8.73624 14.5546 8.67186 14.5066C8.60748 14.4585 8.56377 14.3867 8.54991 14.3063C8.53605 14.2258 8.55313 14.143 8.59754 14.0752L11.0591 10.6026C11.0852 10.5657 11.1188 10.535 11.1576 10.5127C11.1964 10.4904 11.2395 10.477 11.2838 10.4734C11.3281 10.4698 11.3727 10.4761 11.4144 10.4919C11.4562 10.5076 11.4941 10.5325 11.5255 10.5648L13.1311 12.2126L15.2738 9.52551H13.4615C13.3799 9.52551 13.3017 9.49225 13.244 9.43304C13.1863 9.37384 13.1538 9.29354 13.1538 9.20982Z" fill="#EB5757"/>
<defs>
<linearGradient id="paint0_linear_51_994" x1="36.1538" y1="-1.71429" x2="-3.8698" y2="25.698" gradientUnits="userSpaceOnUse">
<stop stop-color="#EB5757" stop-opacity="0.72"/>
<stop offset="1" stop-color="#EB5757" stop-opacity="0"/>
</linearGradient>
</defs>
</svg>
