<svg width="25" height="24" viewBox="0 0 25 24" fill="none" xmlns="http://www.w3.org/2000/svg">
<rect width="24.013" height="23.7051" rx="2.46287" fill="url(#paint0_linear_118_713)" fill-opacity="0.6"/>
<g clip-path="url(#clip0_118_713)">
<path d="M11.6985 7.69641H12.3142V9.23571H11.6985V7.69641ZM13.7574 9.82064L14.8368 8.74128L15.2721 9.1766L14.1927 10.2559L13.7574 9.82064ZM14.777 11.6986H16.3163V12.3143H14.777V11.6986ZM13.7574 14.1922L14.1927 13.7572L15.2721 14.8366L14.8368 15.2719L13.7574 14.1922ZM11.6985 14.7772H12.3142V16.3165H11.6985V14.7772ZM8.74116 14.8363L9.82051 13.7569L10.2558 14.1922L9.17678 15.2716L8.74116 14.8363ZM7.69629 11.6986H9.23558V12.3143H7.69629V11.6986ZM8.74147 9.1766L9.17678 8.74128L10.2561 9.82064L9.82051 10.2559L8.74147 9.1766ZM12.0063 10.775C12.2499 10.775 12.488 10.8472 12.6905 10.9825C12.893 11.1178 13.0508 11.3102 13.144 11.5352C13.2372 11.7602 13.2616 12.0078 13.2141 12.2467C13.1666 12.4856 13.0493 12.705 12.8771 12.8772C12.7048 13.0494 12.4854 13.1667 12.2466 13.2142C12.0077 13.2617 11.7601 13.2373 11.5351 13.1441C11.31 13.0509 11.1177 12.8931 10.9824 12.6906C10.8471 12.4881 10.7749 12.25 10.7749 12.0064C10.7753 11.68 10.9052 11.367 11.136 11.1361C11.3669 10.9053 11.6798 10.7754 12.0063 10.775ZM12.0063 10.1593C11.641 10.1593 11.2839 10.2676 10.9801 10.4706C10.6763 10.6736 10.4396 10.962 10.2998 11.2996C10.16 11.6371 10.1234 12.0085 10.1947 12.3668C10.2659 12.7251 10.4418 13.0542 10.7002 13.3126C10.9585 13.5709 11.2876 13.7468 11.646 13.8181C12.0043 13.8894 12.3757 13.8528 12.7132 13.713C13.0507 13.5732 13.3392 13.3364 13.5422 13.0327C13.7451 12.7289 13.8535 12.3718 13.8535 12.0064C13.8535 11.5165 13.6589 11.0467 13.3124 10.7003C12.966 10.3539 12.4962 10.1593 12.0063 10.1593Z" fill="#27AE60"/>
</g>
<defs>
<linearGradient id="paint0_linear_118_713" x1="28.4769" y1="-5.38753" x2="-7.38861" y2="27.3994" gradientUnits="userSpaceOnUse">
<stop stop-color="#27AE60" stop-opacity="0.67"/>
<stop offset="1" stop-color="#27AE60" stop-opacity="0"/>
</linearGradient>
<clipPath id="clip0_118_713">
<rect width="9.85148" height="9.85148" fill="white" transform="translate(7.08057 7.08069)"/>
</clipPath>
</defs>
</svg>
